<?xml version="1.0" encoding="utf-8"?>
<!-- Generator: Adobe Illustrator 16.0.3, SVG Export Plug-In . SVG Version: 6.00 Build 0)  -->
<!DOCTYPE svg PUBLIC "-//W3C//DTD SVG 1.1//EN" "http://www.w3.org/Graphics/SVG/1.1/DTD/svg11.dtd">
<svg version="1.1" id="Layer_1" xmlns="http://www.w3.org/2000/svg" xmlns:xlink="http://www.w3.org/1999/xlink" x="0px" y="0px"
	 width="595.281px" height="841.891px" viewBox="0 0 595.281 841.891" enable-background="new 0 0 595.281 841.891"
	 xml:space="preserve">
<path fill="#FFFFFF" d="M260.692,527.491l-3.962,16.262c-11.938,4.683-21.458,8.284-28.56,10.755
	c-7.102,2.47-15.387,3.705-24.804,3.705c-14.46,0-25.729-3.551-33.757-10.601c-8.027-7.05-12.041-16.004-12.041-26.862
	c0-4.22,0.309-8.542,0.926-12.916c0.617-4.426,1.543-9.365,2.881-14.923l14.923-52.849c1.338-5.043,2.47-9.881,3.345-14.357
	c0.875-4.477,1.338-8.645,1.338-12.402c0-6.741-1.389-11.475-4.168-14.1c-2.779-2.676-8.079-3.962-15.953-3.962
	c-3.859,0-7.822,0.618-11.887,1.801c-4.065,1.184-7.513,2.367-10.446,3.448l3.962-16.261c9.777-3.962,19.143-7.41,28.097-10.241
	c8.954-2.83,17.393-4.271,25.369-4.271c14.357,0,25.421,3.448,33.243,10.395c7.771,6.947,11.681,15.952,11.681,27.067
	c0,2.316-0.257,6.33-0.823,12.145c-0.566,5.814-1.543,11.115-2.984,15.9l-14.82,52.644c-1.184,4.22-2.316,9.057-3.242,14.46
	s-1.441,9.52-1.441,12.299c0,6.998,1.544,11.784,4.683,14.306s8.542,3.808,16.261,3.808c3.602,0,7.719-0.617,12.298-1.904
	C255.341,529.55,258.634,528.469,260.692,527.491z"/>
<path fill="#FFFFFF" d="M260.692,328.807c0,9.16-3.448,16.982-10.395,23.414c-6.947,6.433-15.284,9.674-25.061,9.674
	c-9.777,0-18.165-3.242-25.164-9.674c-6.998-6.432-10.498-14.254-10.498-23.414c0-9.16,3.5-16.981,10.498-23.517
	c6.999-6.536,15.387-9.777,25.164-9.777c9.777,0,18.114,3.242,25.061,9.777C257.245,311.774,260.692,319.647,260.692,328.807z"/>
<path fill="#F0E0C0" d="M417.386,280.744L355.222,412.48c-13.584,28.817-26.758,58.458-37.049,85.628h-0.824
	c-1.646-28.817-3.705-55.576-6.586-85.217l-12.352-132.147h-61.339l0.926,7.564c7.05,1.904,13.379,5.455,18.937,10.704
	c8.799,8.233,13.173,18.165,13.173,29.743s-4.374,21.51-13.173,29.641c-2.933,2.727-6.072,4.94-9.366,6.741l24.031,193.023h68.75
	l143.314-277.417H417.386z"/>
<path fill="#F0E0C0" d="M158.083,551.78c-8.439-7.41-12.607-16.827-12.607-28.2c0-4.425,0.309-8.953,0.926-13.585
	c0.052-0.565,0.206-1.184,0.309-1.749H87.532l42.814-225.598H71.065l-52.694,277.52h154.995
	C167.397,558.315,162.302,555.537,158.083,551.78z"/>
<g>
	<polygon fill="#F0E0C0" points="467.816,337.813 373.851,519.824 366.544,558.213 537.029,558.213 546.498,507.576 
		435.757,507.576 448.519,440.474 546.908,440.474 556.789,390.661 457.576,390.661 	"/>
	<polygon fill="#F0E0C0" points="431.023,280.744 419.238,280.744 411.365,322.426 	"/>
	<polygon fill="#F0E0C0" points="497.302,280.744 471.16,331.38 573.667,331.38 583.548,280.744 	"/>
</g>
<text transform="matrix(1.317 0 0 1 243.3081 558.1611)" fill="#F6A19E" font-family="'MyriadPro-BoldIt'" font-size="419.0959">F</text>
</svg>
